<?xml version="1.0" encoding="UTF-8" standalone="no"?>
<svg width="61px" height="60px" viewBox="0 0 61 60" version="1.1" xmlns="http://www.w3.org/2000/svg" xmlns:xlink="http://www.w3.org/1999/xlink" xmlns:sketch="http://www.bohemiancoding.com/sketch/ns">
    <!-- Generator: Sketch 3.0.1 (7597) - http://www.bohemiancoding.com/sketch -->
    <title>behance</title>
    <description>Created with Sketch.</description>
    <defs></defs>
    <g id="Page-1" stroke="none" stroke-width="1" fill="none" fill-rule="evenodd" sketch:type="MSPage">
        <path d="M0.456647399,30 C0.456647399,13.4314567 13.9075137,0 30.5,0 C47.0924863,0 60.5433526,13.4314567 60.5433526,30 C60.5433526,46.5685433 47.0924863,60 30.5,60 C13.9075137,60 0.456647399,46.5685433 0.456647399,30 Z M36,21 L44.018,21 L44.018,23.328 L36,23.328 L36,21 Z M36.729,30.917 C36.861,30.017 37.183,29.303 37.694,28.775 C38.205,28.248 38.927,27.984 39.854,27.984 C40.707,27.984 41.422,28.233 42.002,28.73 C42.576,29.229 42.899,29.956 42.966,30.917 L36.729,30.917 L36.729,30.917 Z M46.601,30.557 C46.434,29.473 46.067,28.518 45.495,27.697 C44.869,26.764 44.073,26.081 43.107,25.65 C42.142,25.217 41.057,25 39.852,25 C37.825,25 36.176,25.642 34.904,26.919 C33.635,28.199 33,30.037 33,32.436 C33,34.992 33.701,36.84 35.112,37.975 C36.517,39.111 38.143,39.676 39.986,39.676 C42.216,39.676 43.951,39.004 45.191,37.66 C45.985,36.811 46.434,35.977 46.531,35.157 L42.837,35.157 C42.623,35.563 42.374,35.881 42.091,36.11 C41.577,36.532 40.905,36.744 40.085,36.744 C39.306,36.744 38.642,36.571 38.089,36.223 C37.178,35.666 36.7,34.692 36.641,33.304 L46.721,33.304 C46.738,32.109 46.698,31.192 46.601,30.557 L46.601,30.557 Z M26.169,36.135 C25.719,36.354 25.086,36.464 24.274,36.464 L19.731,36.464 L19.731,31.474 L24.339,31.474 C25.14,31.482 25.764,31.589 26.209,31.792 C27.006,32.157 27.4,32.824 27.4,33.799 C27.4,34.949 26.992,35.726 26.169,36.135 L26.169,36.135 Z M19.731,24.25 L23.805,24.25 C24.7,24.25 25.437,24.348 26.016,24.542 C26.686,24.823 27.021,25.398 27.021,26.271 C27.021,27.055 26.766,27.604 26.261,27.913 C25.752,28.223 25.091,28.379 24.281,28.379 L19.731,28.379 L19.731,24.25 L19.731,24.25 Z M29.886,28.605 C30.464,27.911 30.75,26.992 30.75,25.851 C30.75,24.741 30.464,23.79 29.893,22.994 C28.941,21.698 27.325,21.034 25.043,21 L16,21 L16,39.712 L24.432,39.712 C25.383,39.712 26.263,39.63 27.077,39.46 C27.891,39.29 28.593,38.978 29.189,38.52 C29.719,38.122 30.161,37.63 30.514,37.048 C31.072,36.169 31.349,35.173 31.349,34.065 C31.349,32.989 31.105,32.075 30.62,31.323 C30.132,30.57 29.412,30.02 28.457,29.67 C29.087,29.351 29.561,28.994 29.886,28.605 Z" id="behance" fill="#9B9B9B" sketch:type="MSShapeGroup"></path>
    </g>
</svg>