<?xml version="1.0" encoding="UTF-8" standalone="no"?>
<svg width="61px" height="60px" viewBox="0 0 61 60" version="1.1" xmlns="http://www.w3.org/2000/svg" xmlns:xlink="http://www.w3.org/1999/xlink" xmlns:sketch="http://www.bohemiancoding.com/sketch/ns">
    <!-- Generator: Sketch 3.0.1 (7597) - http://www.bohemiancoding.com/sketch -->
    <title>Facebook</title>
    <description>Created with Sketch.</description>
    <defs></defs>
    <g id="Page-1" stroke="none" stroke-width="1" fill="none" fill-rule="evenodd" sketch:type="MSPage">
        <path d="M0,30 C0,13.4314567 13.4508663,0 30.0433526,0 C46.6358389,0 60.0867052,13.4314567 60.0867052,30 C60.0867052,46.5685433 46.6358389,60 30.0433526,60 C13.4508663,60 0,46.5685433 0,30 Z M32.555553,46.3196729 L32.555553,29.9980891 L37.0610239,29.9980891 L37.6580961,24.3735809 L32.555553,24.3735809 L32.5632077,21.5584604 C32.5632077,20.091502 32.7025884,19.3054722 34.8095642,19.3054722 L37.6262012,19.3054722 L37.6262012,13.6803271 L33.1200924,13.6803271 C27.7075309,13.6803271 25.8024497,16.4088187 25.8024497,20.9972835 L25.8024497,24.3742179 L22.4286091,24.3742179 L22.4286091,29.998726 L25.8024497,29.998726 L25.8024497,46.3196729 L32.555553,46.3196729 Z" id="Facebook" fill="#9B9B9B" sketch:type="MSShapeGroup"></path>
    </g>
</svg>