<?xml version="1.0" encoding="UTF-8" standalone="no"?>
<svg width="62px" height="62px" viewBox="0 0 62 62" version="1.1" xmlns="http://www.w3.org/2000/svg" xmlns:xlink="http://www.w3.org/1999/xlink" xmlns:sketch="http://www.bohemiancoding.com/sketch/ns">
    <!-- Generator: Sketch 3.0.1 (7597) - http://www.bohemiancoding.com/sketch -->
    <title>linkedin</title>
    <description>Created with Sketch.</description>
    <defs></defs>
    <g id="Page-1" stroke="none" stroke-width="1" fill="none" fill-rule="evenodd" sketch:type="MSPage">
        <path d="M0.456647399,31 C0.456647399,14.4314567 13.9075137,1 30.5,1 C47.0924863,1 60.5433526,14.4314567 60.5433526,31 C60.5433526,47.5685433 47.0924863,61 30.5,61 C13.9075137,61 0.456647399,47.5685433 0.456647399,31 Z M22.8425065,24.7098144 L16.0438505,24.7098144 L16.0438505,45.1369537 L22.8425065,45.1369537 L22.8425065,24.7098144 Z M23.2902832,18.3908761 C23.2461572,16.3880081 21.8138965,14.862504 19.4881191,14.862504 C17.1623417,14.862504 15.6418291,16.3880081 15.6418291,18.3908761 C15.6418291,20.3522579 17.1174011,21.9216886 19.3998672,21.9216886 L19.4433143,21.9216886 C21.8138965,21.9216886 23.2902832,20.3522579 23.2902832,18.3908761 Z M47.3610611,33.4246563 C47.3610611,27.1503226 44.007081,24.2301456 39.5332519,24.2301456 C35.9236128,24.2301456 34.3075166,26.2128128 33.4051747,27.6036896 L33.4051747,24.7103567 L26.605704,24.7103567 C26.6953136,26.6271338 26.605704,45.137496 26.605704,45.137496 L33.4051747,45.137496 L33.4051747,33.7292961 C33.4051747,33.1187963 33.4493006,32.5097877 33.629063,32.0726898 C34.1204225,30.8530458 35.2391853,29.5902885 37.1174576,29.5902885 C39.5785998,29.5902885 40.562405,31.4634101 40.562405,34.2084226 L40.562405,45.1369537 L47.3607895,45.1369537 L47.3610611,33.4246563 Z" id="linkedin" fill="#9B9B9B" sketch:type="MSShapeGroup"></path>
    </g>
</svg>