<?xml version="1.0" encoding="UTF-8" standalone="no"?>
<svg width="61px" height="60px" viewBox="0 0 61 60" version="1.1" xmlns="http://www.w3.org/2000/svg" xmlns:xlink="http://www.w3.org/1999/xlink" xmlns:sketch="http://www.bohemiancoding.com/sketch/ns">
    <!-- Generator: Sketch 3.0.1 (7597) - http://www.bohemiancoding.com/sketch -->
    <title>Mail + Shape</title>
    <description>Created with Sketch.</description>
    <defs></defs>
    <g id="Page-1" stroke="none" stroke-width="1" fill="none" fill-rule="evenodd" sketch:type="MSPage">
        <path d="M-0.771676301,30 C-0.771676301,13.4314567 12.67919,0 29.2716763,0 C45.8641626,0 59.3150289,13.4314567 59.3150289,30 C59.3150289,46.5685433 45.8641626,60 29.2716763,60 C12.67919,60 -0.771676301,46.5685433 -0.771676301,30 Z M34.6224062,31.6384006 L47,40.5764264 L47,20 L34.6224062,31.6384006 Z M13,20 L13,40.5764264 L25.3773281,31.6371491 L13,20 Z M30,35.9844891 L27.0448555,33.2065217 L13,42 L47,42 L32.9548125,33.2065217 L30,35.9844891 Z M45.98,20 L14.02,20 L30,32.4549304 L45.98,20 Z" id="mail" fill="#9B9B9B" sketch:type="MSShapeGroup"></path>
    </g>
</svg>