<?xml version="1.0" encoding="UTF-8" standalone="no"?>
<svg width="62px" height="61px" viewBox="0 0 62 61" version="1.1" xmlns="http://www.w3.org/2000/svg" xmlns:xlink="http://www.w3.org/1999/xlink" xmlns:sketch="http://www.bohemiancoding.com/sketch/ns">
    <!-- Generator: Sketch 3.0.1 (7597) - http://www.bohemiancoding.com/sketch -->
    <title>dribbble</title>
    <description>Created with Sketch.</description>
    <defs></defs>
    <g id="Page-1" stroke="none" stroke-width="1" fill="none" fill-rule="evenodd" sketch:type="MSPage">
        <path d="M-0.0539393924,30.3046875 C-0.0539393924,13.7361442 13.3969269,0.3046875 29.9894132,0.3046875 C46.5818995,0.3046875 60.0327658,13.7361442 60.0327658,30.3046875 C60.0327658,46.8732308 46.5818995,60.3046875 29.9894132,60.3046875 C13.3969269,60.3046875 -0.0539393924,46.8732308 -0.0539393924,30.3046875 Z M47.3182128,30.1353182 C47.3182128,31.2957537 47.200074,32.4545795 46.9680276,33.5841648 C46.7417572,34.6869238 46.4066165,35.7695632 45.9675754,36.8045189 C45.5386086,37.8211658 45.0065475,38.8008595 44.3848244,39.7144937 C43.7723698,40.6223602 43.0668279,41.4740928 42.2917729,42.2505109 C41.5150389,43.0235756 40.6603964,43.7271604 39.7529641,44.3422187 C38.8363306,44.9596242 37.8552211,45.4909176 36.8379783,45.9218809 C35.8015269,46.3586119 34.7163827,46.693269 33.6145823,46.9191458 C32.483499,47.1517963 31.3204464,47.2705694 30.158334,47.2705694 C28.9953486,47.2705694 27.8323631,47.1517963 26.7028917,46.9191458 C25.5994122,46.693269 24.5143352,46.3586119 23.4786898,45.9218809 C22.4615141,45.4909176 21.4794643,44.9596242 20.5628308,44.3422187 C19.6553986,43.7272275 18.800756,43.0235756 18.0257011,42.2505109 C17.2498401,41.4740928 16.5442983,40.6223602 15.9309705,39.7144937 C15.3126056,38.8008595 14.7796713,37.8210987 14.3490255,36.8045189 C13.9099172,35.7695632 13.5739705,34.6868567 13.3468942,33.5841648 C13.1173328,32.4545795 13,31.2957537 13,30.1353182 C13,28.974011 13.1172657,27.8127037 13.3469614,26.6855998 C13.5740377,25.5828408 13.9099844,24.4985248 14.3490927,23.4652457 C14.7797385,22.4478611 15.3126728,21.4672955 15.9310377,20.5535943 C16.5443654,19.64499 17.2499073,18.794867 18.0257682,18.0175771 C18.8008232,17.2444453 19.6554657,16.5425371 20.562898,15.9284178 C21.4795315,15.3083967 22.4615812,14.7771703 23.478757,14.3454022 C24.5144024,13.9077324 25.5994122,13.5722704 26.7029589,13.3480703 C27.8324303,13.1171635 28.9954157,13 30.1584012,13 C31.3205135,13 32.483499,13.1171635 33.6146495,13.3480703 C34.7164499,13.5723375 35.8015269,13.9077995 36.8380454,14.3454022 C37.8552211,14.7771033 38.8363978,15.3083967 39.7530313,15.9284178 C40.6604635,16.5425371 41.5151732,17.2444453 42.2918401,18.0175771 C43.0668951,18.794867 43.7724369,19.64499 44.3848916,20.5535943 C45.0065475,21.4672955 45.5386086,22.4479282 45.9675754,23.4652457 C46.4066165,24.4985248 46.7417572,25.5828408 46.9680276,26.6855998 C47.200074,27.8127037 47.3182128,28.974011 47.3182128,30.1353182 Z M23.9059775,16.8997954 C19.8195437,18.8267231 16.7696284,22.5867539 15.8186077,27.1182398 C16.2049263,27.1215931 22.3114731,27.1985843 29.3472128,25.3318815 C26.8109561,20.8321846 24.1012188,17.1600768 23.9059775,16.8997954 Z M30.5613089,27.5851502 C23.0161418,29.8407663 15.7758924,29.6784676 15.5161751,29.6684748 C15.5119438,29.8257436 15.5044216,29.9779824 15.5044216,30.1353182 C15.5044216,33.8944771 16.9246394,37.3215274 19.2590056,39.9128066 C19.2539684,39.9052281 23.2641728,32.8009731 31.1721516,30.2474518 C31.3631617,30.1838737 31.5575971,30.126935 31.7502862,30.0717401 C31.3825045,29.2401271 30.9810744,28.4067704 30.5613089,27.5851502 Z M39.8359769,19.1529971 C37.2560647,16.8813524 33.8685236,15.5034233 30.158334,15.5034233 C28.9676776,15.5034233 27.8122143,15.647346 26.7053767,15.9133951 C26.9248637,16.207947 29.6773835,19.8541675 32.1834842,24.4491645 C37.7127695,22.379253 39.7999107,19.2065154 39.8359769,19.1529971 Z M32.7490594,32.4964284 C32.7164185,32.507226 32.6837775,32.5165481 32.6518753,32.5282175 C24.0058272,35.5380091 21.1823429,41.6036026 21.1517942,41.6698161 C23.6395439,43.6016807 26.7598455,44.7672131 30.158334,44.7672131 C32.1876483,44.7672131 34.1206516,44.3546258 35.8793682,43.6075825 C35.6623662,42.3291117 34.8110818,37.8478579 32.7490594,32.4964284 Z M38.347052,42.2705635 C41.6374089,40.053376 43.9742602,36.5326351 44.6261392,32.4545124 C44.3245125,32.3574686 40.2247134,31.0614266 35.4947959,31.8186638 C37.4169188,37.0931691 38.1978841,41.3887184 38.347052,42.2705635 Z M33.3113437,26.6296001 C33.6514545,27.3274173 33.9808193,28.0376416 34.284931,28.7514204 C34.3930626,29.0074767 34.498642,29.2585031 34.6016692,29.5094624 C39.6356984,28.8769 44.5951773,29.9411634 44.8072092,29.9846219 C44.7736952,26.5157898 43.531055,23.3321876 41.4749429,20.839763 C41.4472719,20.8789964 39.0969882,24.2700995 33.3113437,26.6296001 Z" id="dribbble" fill="#9B9B9B" sketch:type="MSShapeGroup"></path>
    </g>
</svg>